<?xml version="1.0" encoding="utf-8"?>
<svg width="1000px" height="1000px" viewbox="0 0 1000 1000" version="1.1" xmlns:xlink="http://www.w3.org/1999/xlink" xmlns="http://www.w3.org/2000/svg">
  <path d="M0 0L1000 0L1000 1000L0 1000L0 0L0 0L0 0L0 0L0 0L0 0Z" id="bg" fill="#5E9194" fill-rule="evenodd" stroke="none" />
  <g id="Chains" transform="translate(77 33.76886)">
    <g id="right-chain" transform="translate(304.43396 0)">
      <path d="M1.81521 30.6685C1.22613 31.1772 0.613035 31.6629 0 32.1476C6.08073 40.57 12.4048 50.1453 18.7008 60.8503C20.9765 64.7192 23.0435 68.4047 24.9537 71.9421C34.8802 67.6167 45.3277 65.9866 55.8838 67.0153C58.3728 67.2581 60.8668 67.6563 63.362 68.1931C62.7687 66.9726 62.1631 65.7459 61.5458 64.5139C50.6918 42.814 35.8316 19.3444 20.7342 0C17.1674 12.5489 10.7692 22.9568 1.81521 30.6685" transform="translate(144.79128 94.2006)" id="Shape" fill="#C71A8A" fill-rule="evenodd" stroke="none" />
      <path d="M17.6279 51.5209C19.1413 52.0451 20.6484 52.4589 22.1441 52.7675C31.5126 54.6936 40.4019 52.4162 47.0487 46.2491C54.9154 38.9502 58.0727 28.2681 56.5573 14.0172C54.2856 11.9598 51.9701 10.0733 49.6222 8.40672C44.143 4.51805 38.4957 1.77376 32.861 0.614781C27.4832 -0.491082 22.1231 -0.146063 16.9334 1.98431C16.9834 2.1292 17.043 2.28759 17.0921 2.43143C18.1856 5.6249 19.0368 8.47968 19.6582 10.953C17.867 9.34161 15.9024 7.43221 13.8062 5.25908C13.4416 4.88283 13.074 4.49512 12.7012 4.10216C12.295 4.35023 11.8729 4.62018 11.4279 4.93287C10.3888 5.66556 9.26603 6.59004 8.14219 7.76052C4.42612 11.6336 0.716276 18.2217 0.0906622 29.6366C-0.116139 33.4158 0.0353246 37.3962 0.500072 41.511C2.76447 43.2975 5.03191 44.9297 7.29319 46.367C10.7701 48.5734 14.2292 50.3453 17.6279 51.5209" transform="translate(167.62901 196.83849)" id="Shape#1" fill="#C71A8A" fill-rule="evenodd" stroke="none" />
      <path d="M58.2087 43.3309C59.7137 41.9885 61.3055 40.7305 62.9588 39.535C58.7059 33.4962 54.2922 26.8382 49.7853 19.5101C45.5721 12.6572 41.8538 6.15247 38.5441 0C27.686 5.09249 15.8337 6.4766 3.66598 4.21491C3.25549 4.13778 2.84503 4.07108 2.43457 3.98666C1.62411 3.8199 0.811545 3.61979 0 3.42071C0.522213 4.49738 1.05072 5.57401 1.58653 6.64963C8.73465 20.9911 16.9836 35.1231 24.7114 47.0414C29.0135 53.6754 34.5543 61.7988 40.8449 70.1202C44.4086 59.463 50.2741 50.4006 58.2087 43.3309" transform="translate(94.896034 133.38025)" id="Shape#2" fill="#C71A8A" fill-rule="evenodd" stroke="none" />
      <path d="M38.1788 43.84C39.5283 45.072 40.9664 46.4582 42.4652 47.9579C43.2078 48.7021 43.9712 49.4828 44.7473 50.2916C45.3102 49.8569 45.8565 49.4036 46.3735 48.9179C54.4565 41.3261 56.8095 27.2951 55.0309 11.2162C53.8778 10.3407 52.7414 9.51831 51.6208 8.7512C50.2787 7.83192 48.9668 7.00332 47.6832 6.24977C29.4953 -4.43445 17.2597 0.892542 11.3931 5.27213C5.09201 9.97689 -1.74803 19.4532 0.404581 38.0502C1.39783 38.9716 2.39632 39.8742 3.40523 40.7362C6.40798 43.3032 9.47029 45.6118 12.5702 47.5817C23.6798 54.642 33.2804 56.2929 41.1314 52.5262C40.861 51.8008 40.5821 51.0639 40.3335 50.3656C39.5011 48.032 38.7741 45.839 38.1788 43.84" transform="translate(77.24033 48.295925)" id="Shape#3" fill="#C71A8A" fill-rule="evenodd" stroke="none" />
      <path d="M20.9179 51.2479C33.0847 53.5097 44.938 52.1266 55.796 47.0341C55.5662 46.6067 55.3207 46.1669 55.0952 45.7448C48.6447 33.64 43.9322 23.0777 40.7269 14.4759C32.8758 18.2427 23.2754 16.5917 12.1666 9.53147C9.06571 7.56055 6.00343 5.25298 3.00065 2.68589C1.99174 1.82395 0.99325 0.921363 0 0C0.103401 0.890088 0.219317 1.79373 0.364523 2.72552C0.646485 4.53072 1.00894 6.39428 1.43297 8.30162C4.25506 20.9797 10.1102 35.7454 17.251 50.4538C18.0636 50.6528 18.8762 50.8539 19.6856 51.0198C20.0971 51.1041 20.5075 51.1708 20.9179 51.2479" transform="translate(77.64521 86.34717)" id="Shape#4" fill="#C71A8A" fill-rule="evenodd" stroke="none" />
      <path d="M32.3892 65.4353C31.9255 61.3205 31.773 57.339 31.9797 53.5609C32.6054 42.145 36.3152 35.5578 40.0313 31.6847C41.1541 30.5133 42.2769 29.5888 43.3171 28.8571C43.7621 28.5434 44.184 28.2745 44.5903 28.0254C38.377 21.4498 31.0105 12.5228 23.0267 1.29449C22.7239 0.869249 22.419 0.432552 22.1139 0C20.4606 1.19548 18.8699 2.45452 17.3638 3.79592C9.42817 10.8666 3.56257 19.928 0 30.5852C1.19278 32.1631 2.40328 33.7453 3.6472 35.3296C12.3914 46.4577 22.3324 57.4964 32.3892 65.4353" transform="translate(135.7423 172.91524)" id="Shape#5" fill="#C71A8A" fill-rule="evenodd" stroke="none" />
      <path d="M16.3559 34.478C19.9425 32.5603 23.2418 30.3048 26.2697 27.7617C25.7317 27.0186 25.1939 26.2692 24.6602 25.5438C16.9303 15.0315 9.6621 6.47244 3.43303 0C2.67164 0.683715 1.87894 1.3268 1.0173 1.89377C0.689274 2.11058 0.342572 2.30652 0 2.50976C3.20221 11.0855 7.90013 21.6008 14.3172 33.64C14.5741 34.1215 14.853 34.6229 15.115 35.1086C15.5213 34.9043 15.9287 34.7073 16.3318 34.4916L16.3559 34.478L16.3559 34.478L16.3559 34.478L16.3559 34.478Z" transform="translate(253.50963 332.8544)" id="Shape#6" fill="#3AFA97" fill-rule="evenodd" stroke="none" />
      <path d="M81.3905 119.975C81.3749 119.872 81.3633 119.773 81.3477 119.671C60.4725 101.157 42.8404 69.647 37.5556 42.2064C37.0762 39.7164 36.6981 37.2598 36.4256 34.8501C26.3686 26.9112 16.4278 15.8726 7.68266 4.74332C6.43874 3.16012 5.22715 1.57798 4.03546 0C3.25215 2.33987 2.57749 4.75478 2.01973 7.24476C1.04004 11.6191 0.408203 16.2156 0.144983 21.0172C-1.12505 44.1846 5.98333 71.5221 20.1604 97.9944C34.1078 124.035 52.7071 145.315 72.5346 157.914C81.3152 163.494 90.2034 167.214 98.9463 169.069C91.5026 153.912 85.3687 138.622 82.4589 125.551C82.0339 123.643 81.6726 121.78 81.3905 119.975" transform="translate(131.70554 203.50053)" id="Shape#7" fill="#3AFA97" fill-rule="evenodd" stroke="none" />
      <path d="M26.7073 32.6801C23.7901 24.2545 19.1236 13.4107 12.0141 0.228244C11.9734 0.153195 11.9306 0.075033 11.8888 0C10.9645 0.403342 10.0412 0.821297 9.12524 1.27156C8.18107 1.73642 7.26092 2.22628 6.35118 2.72968C4.12554 3.9606 2.01471 5.31657 0 6.77262C0.30496 7.20514 0.609921 7.64187 0.912848 8.06711C8.8976 19.2953 16.263 28.2224 22.4763 34.798C23.4852 34.1831 24.3646 33.7443 24.9996 33.4306C25.5657 33.1533 26.1359 32.9146 26.7073 32.6801" transform="translate(157.85619 166.14265)" id="Shape#8" fill="#3AFA97" fill-rule="evenodd" stroke="none" />
      <path d="M14.7599 40.3501C15.3448 43.1778 15.7563 45.872 16.032 48.4621C26.4012 57.856 35.8147 70.9707 42.872 84.6785C50.301 99.1107 55.5796 115.303 57.5567 130.01C57.5713 130.117 57.5797 130.222 57.5933 130.328C66.2141 136.578 75.7487 145.918 85.9643 158.13C86.5868 158.873 87.2093 159.646 87.8318 160.406C89.0945 161.947 90.3583 163.533 91.6209 165.137C91.6877 164.876 91.762 164.62 91.8268 164.357C93.4884 157.591 94.3658 150.248 94.4023 142.396C94.51 119.343 87.5571 93.027 74.8265 68.2962C62.451 44.2586 45.81 24.3753 27.97 12.3091C18.8333 6.12954 9.41249 2.02407 0 0C0.64855 1.33201 1.28261 2.65672 1.89254 3.96894C8.31266 17.7872 12.5938 29.8837 14.7599 40.3501" transform="translate(208.15431 162.3936)" id="Shape#9" fill="#3AFA97" fill-rule="evenodd" stroke="none" />
      <path d="M0 5.22506C0.0407249 5.30009 0.0835465 5.37722 0.124335 5.4533C7.23487 18.6358 11.9003 29.4795 14.8175 37.9052C20.0073 35.7749 25.3674 35.4298 30.7442 36.5367C36.38 37.6947 42.0272 40.439 47.5064 44.3287C49.8543 45.9953 52.1699 47.8807 54.4415 49.9381C54.1658 47.3492 53.7543 44.655 53.1694 41.8273C51.0032 31.3608 46.7221 19.2622 40.3009 5.44496C39.6909 4.1338 39.059 2.80907 38.4083 1.47601C35.9131 0.939263 33.419 0.542163 30.9302 0.298258C20.3738 -0.73046 9.92634 0.899634 0 5.22506" transform="translate(169.74487 160.91753)" id="Shape#10" fill="#3AFA97" fill-rule="evenodd" stroke="none" />
      <path d="M37.1758 27.8024C26.9602 15.5902 17.4255 6.25043 8.80466 0C11.0304 16.9483 8.82664 31.8692 0.395877 39.7883C0.268429 39.9082 0.129545 40.0155 0 40.1322C6.22901 46.6058 13.4972 55.1638 21.2261 65.676C21.7609 66.4015 22.2987 67.1509 22.8356 67.894C23.0184 67.7408 23.2085 67.599 23.3882 67.4437C32.8038 59.3328 39.389 48.2368 42.8315 34.8094C41.5688 33.2053 40.305 31.6201 39.0423 30.0786C38.4198 29.3199 37.7983 28.5454 37.1758 27.8024" transform="translate(256.94257 292.72113)" id="Shape#11" fill="#3AFA97" fill-rule="evenodd" stroke="none" />
      <path d="M56.6442 41.7927C58.1389 40.4617 59.717 39.2131 61.3568 38.0259C57.392 32.3435 53.2937 26.1222 49.1169 19.3298C44.9434 12.5436 41.2597 6.10036 37.9728 0C26.7221 5.67198 14.3516 7.29167 1.63669 4.92886C1.2241 4.85278 0.815706 4.78502 0.4042 4.70062C0.269445 4.67352 0.134754 4.636 0 4.60681C0.304961 5.22801 0.607825 5.84918 0.917042 6.46933C8.06621 20.8108 16.3143 34.944 24.042 46.8612C28.13 53.1648 33.3386 60.814 39.2428 68.6987C42.8022 57.9916 48.6804 48.8884 56.6442 41.7927" transform="translate(230.65198 367.963)" id="Shape#12" fill="#C71A8A" fill-rule="evenodd" stroke="none" />
      <path d="M0.551471 32.6343C0.371861 32.7885 0.181769 32.9314 0 33.0846C6.11103 41.5393 12.4685 51.1584 18.7989 61.9218C20.775 65.281 22.586 68.4954 24.2822 71.6013C34.171 67.3166 44.5746 65.7042 55.0858 66.7287C57.6583 66.9799 60.238 67.3979 62.8167 67.9628C62.4272 67.1717 62.0418 66.3817 61.6439 65.5854C50.5885 43.4842 35.3794 19.5424 19.9947 0C16.5523 13.4275 9.96713 24.5223 0.551471 32.6343" transform="translate(279.77994 327.53152)" id="Shape#13" fill="#C71A8A" fill-rule="evenodd" stroke="none" />
      <path d="M18.5192 52.884C20.0325 53.4072 21.5398 53.8211 23.0365 54.1295C32.404 56.0567 41.2931 53.7783 47.9401 47.6123C55.9164 40.2122 59.0549 29.3403 57.388 14.7925C54.85 12.4328 52.2556 10.2826 49.6194 8.41176C44.1404 4.5231 38.493 1.77878 32.8584 0.618784C27.6038 -0.462047 22.3639 -0.16919 17.2869 1.83199C17.5239 2.49067 17.7704 3.16295 17.9866 3.79457C19.08 6.98699 19.9303 9.84174 20.5517 12.316C18.7595 10.7047 16.797 8.79427 14.6997 6.62219C13.9717 5.8676 13.2239 5.07445 12.4625 4.2521C12.1283 4.46157 11.7847 4.68565 11.4274 4.93788C10.3872 5.66956 9.26546 6.59404 8.1406 7.76556C4.42555 11.6386 0.715704 18.2257 0.0890739 29.6416C-0.129227 33.6355 0.059785 37.8578 0.589336 42.2227C3.11898 44.2624 5.65803 46.1197 8.1887 47.7281C11.6625 49.9355 15.1227 51.7073 18.5192 52.884" transform="translate(301.8226 429.87918)" id="Shape#14" fill="#C71A8A" fill-rule="evenodd" stroke="none" />
      <path d="M38.1812 43.8406C39.5295 45.0726 40.9687 46.4588 42.4676 47.9586C43.1683 48.6601 43.8879 49.3969 44.6191 50.1557C44.7485 50.039 44.8874 49.9317 45.0149 49.8117C53.4465 41.8926 55.6492 26.9716 53.4236 10.0223C52.82 9.5846 52.2183 9.15937 51.623 8.75078C50.2809 7.83253 48.9691 7.00396 47.6854 6.24937C29.4978 -4.43486 17.2634 0.893185 11.3959 5.27277C4.82651 10.1776 -2.332 20.2647 0.729174 40.4721C1.16787 40.8608 1.60441 41.2537 2.0473 41.63C5.05002 44.1981 8.11227 46.5057 11.2121 48.4766C22.6956 55.7735 32.5717 57.3098 40.5646 53.0397C40.7798 52.925 40.9773 52.7874 41.185 52.6644C40.8957 51.8911 40.6002 51.1083 40.337 50.3663C39.5034 48.0315 38.7775 45.8397 38.1812 43.8406" transform="translate(212.32455 282.69873)" id="Shape#15" fill="#C71A8A" fill-rule="evenodd" stroke="none" />
      <path d="M19.2354 49.7211C31.9504 52.085 44.3206 50.4642 55.5712 44.7923C55.3091 44.3066 55.0292 43.8053 54.7734 43.3237C48.3563 31.2845 43.6584 20.7691 40.4562 12.1934C40.2484 12.3164 40.0509 12.4529 39.8359 12.5676C31.8427 16.8377 21.9666 15.3025 10.483 8.00455C7.38215 6.03365 4.32085 3.72608 1.31813 1.15901C0.876318 0.781684 0.438699 0.388762 0 0C0.0156928 0.103178 0.0271288 0.201147 0.0428216 0.304325C0.324847 2.10953 0.686225 3.9731 1.11025 5.88044C4.02104 18.9514 10.155 34.2414 17.5987 49.399C17.7334 49.4283 17.8682 49.4658 18.0029 49.4928C18.4145 49.5783 18.8229 49.645 19.2354 49.7211" transform="translate(213.05353 323.16962)" id="Shape#16" fill="#C71A8A" fill-rule="evenodd" stroke="none" />
      <path d="M32.5188 66.1127C31.9893 61.7478 31.8013 57.5255 32.0195 53.5326C32.6451 42.1167 36.355 35.5287 40.0711 31.6556C41.195 30.4841 42.3166 29.5606 43.3569 28.8279C43.7141 28.5767 44.0577 28.3527 44.392 28.1431C38.4219 21.6957 31.4649 13.1772 23.9606 2.62441C23.3486 1.76353 22.7323 0.88699 22.114 0C20.4753 1.1882 18.8961 2.43578 17.4015 3.76775C9.43759 10.8635 3.55947 19.9655 0 30.6737C1.48834 32.6603 3.00901 34.6582 4.5809 36.6584C13.0932 47.4896 22.7376 58.2279 32.5188 66.1127" transform="translate(269.89243 405.98816)" id="Shape#17" fill="#C71A8A" fill-rule="evenodd" stroke="none" />
      <path d="M27.1012 32.5781C24.159 24.3765 19.6428 14.0538 12.9479 1.64053C12.6566 1.09957 12.3526 0.54823 12.0539 0C11.0857 0.420051 10.1206 0.854652 9.16285 1.3268C8.21868 1.79063 7.29859 2.28047 6.38886 2.78391C4.14848 4.02316 2.02411 5.38958 0 6.85602C0.618307 7.74301 1.23452 8.6185 1.8466 9.47941C9.35186 20.0334 16.3089 28.5517 22.2779 34.9981C23.3872 34.3019 24.3522 33.8225 25.0383 33.4869C25.7214 33.1503 26.4107 32.85 27.1012 32.5781" transform="translate(292.00867 399.1332)" id="Shape#18" fill="#B772A2" fill-rule="evenodd" stroke="none" />
      <path d="M15.4045 41.6519C15.9455 44.2659 16.3392 46.7663 16.615 49.1759C26.6542 58.5105 35.7532 71.2844 42.6205 84.6223C49.8626 98.6896 55.0513 114.427 57.1392 128.835C65.8739 135.085 75.5558 144.529 85.945 156.948C86.5675 157.69 87.1899 158.464 87.8124 159.225C89.0898 160.782 90.3661 162.384 91.6424 164.007C93.2581 157.322 94.1145 150.081 94.1501 142.341C94.2587 119.288 87.3048 92.9718 74.5741 68.241C62.1986 44.2034 45.5585 24.3201 27.7184 12.2539C18.6631 6.12952 9.32894 2.04387 0 0C0.871045 1.77081 1.72646 3.5343 2.53486 5.27179C8.95715 19.088 13.2383 31.1855 15.4045 41.6519" transform="translate(342.59573 395.49426)" id="Shape#19" fill="#B772A2" fill-rule="evenodd" stroke="none" />
      <path d="M15.8243 35.1294C19.6272 33.0969 23.1166 30.6967 26.2907 27.9628C26.3262 27.9326 26.3586 27.9003 26.3951 27.87C25.7152 26.9258 25.0352 25.9846 24.3626 25.0685C16.8228 14.8147 9.71852 6.41516 3.59288 0C3.49161 0.100065 3.39968 0.20947 3.29834 0.307438C2.4252 1.1267 1.49564 1.88129 0.48673 2.54413C0.329993 2.64833 0.160867 2.73797 0 2.83912C3.19389 11.2637 7.80617 21.506 14.0195 33.1637C14.4133 33.9058 14.8384 34.6707 15.2457 35.4233C15.4306 35.3275 15.6175 35.2399 15.8013 35.1419C15.8076 35.1388 15.816 35.1346 15.8243 35.1294" transform="translate(388.23248 565.2461)" id="Shape#20" fill="#B772A2" fill-rule="evenodd" stroke="none" />
      <path d="M81.8434 119.99C60.7519 101.539 42.8814 69.7478 37.5559 42.0905C37.1235 39.8424 36.7799 37.6245 36.5156 35.4399C26.7345 27.5552 17.0891 16.8168 8.57899 5.98568C7.00705 3.98558 5.48637 1.98761 3.99804 0C3.23252 2.30442 2.56821 4.67971 2.01992 7.12902C1.04023 11.5033 0.40833 16.0997 0.145174 20.9014C-1.12594 44.0676 5.98359 71.4059 20.1608 97.8783C34.1082 123.92 52.7066 145.199 72.5353 157.798C81.4517 163.464 90.4788 167.221 99.3513 169.045C99.509 169.078 99.6667 169.105 99.8235 169.133C92.0904 153.549 85.6859 137.755 82.6915 124.309C82.3645 122.837 82.0878 121.402 81.8434 119.99" transform="translate(265.89697 436.6609)" id="Shape#21" fill="#B772A2" fill-rule="evenodd" stroke="none" />
      <path d="M0 5.17086C0.298734 5.71909 0.602679 6.27043 0.894043 6.81136C7.58888 19.2236 12.104 29.5472 15.0473 37.7487C20.1244 35.7475 25.3643 35.4546 30.6198 36.5355C36.2536 37.6955 41.9008 40.4387 47.38 44.3273C50.0162 46.1993 52.6116 48.3494 55.1485 50.7091C54.8717 48.2984 54.4779 45.798 53.938 43.185C51.7719 32.7188 47.4906 20.6202 41.0694 6.80303C40.2621 5.06562 39.4056 3.30313 38.5357 1.53233C35.9549 0.967455 33.3762 0.549501 30.8037 0.298321C20.2915 -0.726251 9.88778 0.886132 0 5.17086" transform="translate(304.06274 393.96194)" id="Shape#22" fill="#B772A2" fill-rule="evenodd" stroke="none" />
      <path d="M36.7173 28.1126C26.3282 15.6942 16.6463 6.25036 7.91156 0C7.96588 0.373069 8.02643 0.749378 8.07662 1.12041C10.343 17.9923 8.23012 32.8767 0 40.9177C6.12564 47.3318 13.2299 55.7322 20.7687 65.9859C21.4434 66.902 22.1212 67.8422 22.8022 68.7875C32.3442 60.5265 38.9754 49.1973 42.3479 35.4656C42.3709 35.3687 42.3917 35.2697 42.4147 35.1718C41.1384 33.5489 39.8621 31.9471 38.5848 30.3899C37.9633 29.6291 37.3397 28.8557 36.7173 28.1126" transform="translate(391.8246 524.3296)" id="Shape#23" fill="#B772A2" fill-rule="evenodd" stroke="none" />
      <path d="M0 33.6161C5.98047 41.9292 12.1917 51.3565 18.3759 61.8697C19.4213 63.6478 20.4178 65.3831 21.3818 67.0884C31.6121 62.4201 42.4168 60.6441 53.3375 61.7092C55.4744 61.9166 57.6165 62.2387 59.7576 62.6639C48.8537 41.3925 34.3213 18.6919 19.6124 0C19.5895 0.0979686 19.5686 0.198034 19.5456 0.293906C16.1731 14.0257 9.54196 25.3562 0 33.6161" transform="translate(414.62714 559.5003)" id="Shape#24" fill="#C71A8A" fill-rule="evenodd" stroke="none" />
      <path d="M54.6754 36.0331C55.7438 35.0815 56.8645 34.1789 58.0081 33.2993C54.8937 28.7101 51.7081 23.799 48.4734 18.5398C44.4796 12.0454 40.9378 5.86794 37.7576 0C26.3323 5.94609 13.724 7.67312 0.760368 5.26552C0.507632 5.21755 0.253816 5.17067 0 5.12378C0.0919329 5.3093 0.181769 5.49373 0.273639 5.67931C7.42281 20.0208 15.6708 34.1528 23.3996 46.07C27.0114 51.6409 31.5014 58.2646 36.569 65.1705C40.0314 53.4909 46.1642 43.6177 54.6754 36.0331" transform="translate(365.71756 600.67163)" id="Shape#25" fill="#C71A8A" fill-rule="evenodd" stroke="none" />
      <path d="M32.86 0.614623C27.4435 -0.4995 22.0459 -0.139964 16.8237 2.03002C17.77 4.42307 18.5972 6.66809 19.3135 8.75574C20.4071 11.9492 21.2573 14.8051 21.8787 17.2783C20.0864 15.668 18.124 13.7576 16.0267 11.5855C14.2898 9.78447 12.4516 7.78545 10.533 5.59984C9.75696 6.20747 8.94849 6.91829 8.14219 7.75833C4.42612 11.6335 0.716276 18.2196 0.0906622 29.6354C-0.200766 34.9593 0.219127 40.6855 1.22702 46.6233C3.98437 48.886 6.75417 50.9382 9.51464 52.6914C12.9895 54.8989 16.4498 56.6697 19.8473 57.8453C21.3606 58.3695 22.8689 58.7835 24.3644 59.0918C33.7321 61.019 42.6213 58.7406 49.2681 52.5736C58.0091 44.4647 60.9554 32.1942 58.1156 15.4731C55.3489 12.8425 52.509 10.4556 49.6212 8.40452C44.141 4.51691 38.4938 1.77265 32.86 0.614623" transform="translate(434.91953 656.833)" id="Shape#26" fill="#C71A8A" fill-rule="evenodd" stroke="none" />
      <path d="M38.1866 43.8413C39.535 45.0732 40.9742 46.4594 42.473 47.9582C43.3211 48.8066 44.1921 49.6987 45.082 50.6305C53.3132 42.5896 55.4252 27.7052 53.1586 10.8332C53.1085 10.4621 53.0479 10.0859 52.9935 9.71275C52.5361 9.38657 52.0797 9.06134 51.6275 8.7518C50.2854 7.83152 48.9735 7.00292 47.6898 6.24935C29.502 -4.4347 17.2675 0.893281 11.3999 5.27176C4.79798 10.2016 -2.40449 20.3625 0.775807 40.775C0.840547 41.1878 0.924157 41.614 0.996204 42.033C1.27086 42.2716 1.5424 42.5197 1.81814 42.7552C4.82092 45.3223 7.88323 47.6309 10.9831 49.6008C22.4668 56.8975 32.3429 58.4338 40.3361 54.1637C40.736 53.95 41.1089 53.7072 41.4871 53.4686C41.0839 52.4075 40.6974 51.3652 40.3392 50.3636C39.5089 48.0332 38.7829 45.8403 38.1866 43.8413" transform="translate(346.74237 514.61566)" id="Shape#27" fill="#C71A8A" fill-rule="evenodd" stroke="none" />
      <path d="M55.7365 44.0198C55.3292 43.2674 54.9051 42.5023 54.5103 41.7602C48.297 30.1025 43.6847 19.8602 40.4908 11.4357C40.1138 11.6743 39.7399 11.9172 39.3399 12.1308C31.3467 16.4009 21.4706 14.8647 9.98695 7.56785C6.88601 5.59692 3.82471 3.28938 0.821932 0.722248C0.546261 0.485713 0.273575 0.238695 0 0C0.244413 1.4112 0.521228 2.84643 0.848108 4.31913C3.84041 17.7653 10.246 33.5608 17.979 49.1447C18.2317 49.1915 18.4855 49.2385 18.7394 49.2853C31.7029 51.694 44.3114 49.967 55.7365 44.0198" transform="translate(347.73984 556.6508)" id="Shape#28" fill="#C71A8A" fill-rule="evenodd" stroke="none" />
      <path d="M33.8575 69.4866C32.8497 63.5489 32.4298 57.8237 32.7212 52.4988C33.3468 41.0829 37.0566 34.4969 40.7728 30.6228C41.5801 29.7806 42.3875 29.0708 43.1635 28.4631C37.9727 22.5536 32.1665 15.2473 25.9887 6.56002C24.4921 4.45465 22.9724 2.26376 21.4381 0C20.2934 0.879685 19.1738 1.7823 18.1053 2.73385C9.59425 10.3183 3.4613 20.1917 0 31.8713C2.11077 34.7489 4.31354 37.6705 6.61021 40.594C14.9208 51.1699 24.3135 61.6571 33.8575 69.4866" transform="translate(402.28873 633.9708)" id="Shape#29" fill="#C71A8A" fill-rule="evenodd" stroke="none" />
      <path d="M0 0.115694C2.39909 3.90431 4.6415 7.81383 6.68131 11.7765C14.1114 26.2077 19.389 42.4002 21.366 57.1086C21.4748 57.9163 21.5635 58.7147 21.6513 59.5121C29.8438 65.7344 38.8281 74.6644 48.414 86.121C49.0344 86.8641 49.6569 87.6375 50.2804 88.3973C51.823 90.2796 53.3646 92.2256 54.9063 94.2006C55.1632 93.2949 55.4086 92.3808 55.6373 91.4542C57.298 84.6889 58.1753 77.3462 58.212 69.4938C58.3122 48.1868 52.3683 24.096 41.4173 1.04227C31.0752 0.355414 20.6414 0 10.1249 0C6.74084 0 3.36727 0.0437746 0 0.115694" transform="translate(110.619255 0)" id="Shape#64" fill="#B772A2" fill-rule="evenodd" stroke="none" />
      <path d="M70.5154 118.239C78.617 123.387 86.8097 126.943 94.8957 128.922C87.7549 114.213 81.8997 99.4473 79.0777 86.7693C78.6537 84.862 78.2912 82.9974 78.0093 81.1932C77.864 80.2614 77.7481 79.3567 77.6447 78.4666C57.51 59.783 40.6777 29.2323 35.536 2.53061C35.3731 1.68325 35.2216 0.839023 35.0817 0C23.2231 2.20751 11.5233 4.86007 0 7.94933C2.95367 24.2222 9.10438 41.4445 18.1408 58.3186C32.0883 84.3607 50.6877 105.64 70.5154 118.239" transform="translate(0 7.879496)" id="Shape#65" fill="#B772A2" fill-rule="evenodd" stroke="none" />
      <path d="M37.0442 26.6089C27.4593 15.1524 18.4751 6.2223 10.2825 0C12.0612 16.079 9.7081 30.1099 1.62512 37.7017C1.10815 38.1874 0.56189 38.6408 0 39.0755C6.19877 45.5322 13.4211 54.0444 21.0946 64.4826C21.6596 65.2518 22.2319 66.045 22.8022 66.8351C23.4152 66.3504 24.0283 65.8657 24.6174 65.3561C33.5714 57.6443 39.9696 47.2374 43.5365 34.6875C41.9948 32.7135 40.4532 30.7676 38.9105 28.8853C38.2891 28.1255 37.6657 27.3521 37.0442 26.6089" transform="translate(121.98797 59.512104)" id="Shape#66" fill="#B772A2" fill-rule="evenodd" stroke="none" />
      <path d="M29.029 12.5321C19.5498 6.1212 9.76439 1.93758 0 0C0.49194 0.958847 0.986992 1.91877 1.46324 2.87044C2.751 5.44584 4.00229 8.00465 5.17099 10.5185C11.5921 24.3359 15.8733 36.4344 18.0394 46.8997C18.2671 48.0004 18.4676 49.0802 18.6483 50.1433C28.1161 59.1432 36.7077 71.1637 43.3324 83.7677C50.5035 72.0318 57.1681 59.9541 63.2958 47.5636C53.122 32.9574 41.3627 20.8744 29.029 12.5321" transform="translate(474.3844 622.1652)" id="Shape#67" fill="#B772A2" fill-rule="evenodd" stroke="none" />
      <path d="M70.1494 105.816C54.3711 87.2832 41.8618 62.221 37.5557 39.8582C37.4105 39.1067 37.2789 38.3594 37.1525 37.6152C27.6074 29.7858 18.2147 19.2996 9.90417 8.7227C7.60743 5.79921 5.40574 2.87775 3.29389 0C2.81974 1.59882 2.39362 3.23207 2.01973 4.89754C1.04004 9.27087 0.408139 13.8673 0.144983 18.669C-1.12505 41.8375 5.98339 69.1739 20.1606 95.6464C27.4205 109.201 35.9474 121.449 45.246 131.87C53.8771 123.51 62.1856 114.82 70.1494 105.816" transform="translate(398.99374 665.8421)" id="Shape#68" fill="#B772A2" fill-rule="evenodd" stroke="none" />
      <path d="M12.2815 0C11.6997 0.265761 11.1202 0.535715 10.5425 0.819201C9.59837 1.28306 8.67828 1.77392 7.76854 2.27634C5.01227 3.79905 2.43041 5.51357 0 7.38018C1.53528 9.64401 3.05494 11.8348 4.55064 13.9402C10.7284 22.6274 16.5355 29.9336 21.7254 35.8432C22.0283 35.6055 22.328 35.3815 22.6194 35.1751C24.1642 34.086 25.524 33.4158 26.416 32.9781C26.9466 32.7175 27.4823 32.4956 28.0161 32.2735C25.1219 24.9475 21.1039 16.2092 15.652 6.10036C14.5834 4.11901 13.4586 2.08352 12.2815 0" transform="translate(423.72726 626.58954)" id="Shape#69" fill="#B772A2" fill-rule="evenodd" stroke="none" />
      <path d="M43.5468 11.7719C42.3781 9.25805 41.1279 6.69923 39.8391 4.12384C39.3629 3.17223 38.8667 2.21122 38.3759 1.25339C36.2336 0.82816 34.0915 0.506108 31.9557 0.298671C21.035 -0.765452 10.2303 1.0105 0 5.6778C1.17708 7.76132 2.30194 9.79681 3.37248 11.7792C8.82442 21.8871 12.8424 30.6253 15.7366 37.9515C20.9587 35.7815 26.3565 35.4209 31.7719 36.5362C37.4066 37.6941 43.0539 40.4384 48.532 44.3281C51.4219 46.3792 54.2597 48.766 57.0274 51.3966C56.8447 50.3325 56.6452 49.2527 56.4175 48.1532C54.2492 37.6889 49.968 25.5893 43.5468 11.7719" transform="translate(436.00824 620.9107)" id="Shape#70" fill="#B772A2" fill-rule="evenodd" stroke="none" />
      <path d="M3.61588 0C3.23048 0.299131 2.8409 0.593053 2.43041 0.862991C1.89984 1.21215 1.36089 1.54985 0.792707 1.85314C0.531648 1.99281 0.265316 2.10849 0 2.23565C3.20329 10.8364 7.91785 21.3997 14.3662 33.5035C14.5929 33.9267 14.8384 34.3665 15.0681 34.7927C15.9653 34.3717 16.8594 33.934 17.7439 33.4608C17.7523 33.4576 17.7596 33.4524 17.768 33.4472C20.8627 31.7931 23.7401 29.8827 26.418 27.7596C25.8477 26.9695 25.2764 26.1764 24.7114 25.4072C17.038 14.9689 9.81566 6.45683 3.61588 0" transform="translate(118.37109 98.58748)" id="Shape#75" fill="#B772A2" fill-rule="evenodd" stroke="none" />
    </g>
    <g id="left-chain" transform="translate(0 143.07837)">
      <path d="M17.768 33.4472C20.8627 31.7932 23.7401 29.8827 26.4191 27.7596C25.8488 26.9696 25.2776 26.1764 24.7114 25.4072C17.0359 14.9689 9.8146 6.45681 3.61585 0C3.22942 0.298099 2.84088 0.593053 2.42938 0.863007C1.89984 1.21216 1.36092 1.54984 0.792739 1.85318C0.531616 1.99282 0.264252 2.10852 0 2.23463C3.20331 10.8364 7.91686 21.3987 14.3684 33.5036C14.5929 33.9256 14.8384 34.3655 15.0681 34.7929C15.9653 34.3717 16.8594 33.933 17.744 33.4608C17.7524 33.4556 17.7597 33.4514 17.768 33.4472" transform="translate(76.05178 130.6099)" id="Shape#30" fill="#C71A8A" fill-rule="evenodd" stroke="none" />
      <path d="M16.356 34.4775C19.9425 32.5598 23.2419 30.3043 26.2698 27.7613C25.7329 27.0182 25.194 26.2688 24.6603 25.5434C16.9303 15.0312 9.66109 6.47342 3.43306 0C2.67273 0.68273 1.87894 1.32677 1.0173 1.8938C0.68829 2.11058 0.341524 2.30652 0 2.50874C3.20228 11.0854 7.90017 21.6017 14.3162 33.6397C14.5731 34.1212 14.8519 34.6215 15.1141 35.1082C15.5204 34.904 15.9288 34.7059 16.3319 34.4913C16.3392 34.4859 16.3486 34.4807 16.356 34.4775" transform="translate(211.19019 364.87634)" id="Shape#31" fill="#C71A8A" fill-rule="evenodd" stroke="none" />
      <path d="M26.7073 32.6801C23.7902 24.2544 19.1236 13.4107 12.0141 0.228244C11.9734 0.153211 11.9306 0.075033 11.8898 0C10.9644 0.403342 10.0412 0.821297 9.12523 1.27156C8.18106 1.73643 7.26092 2.22625 6.3512 2.72968C4.12551 3.96058 2.01366 5.31658 0 6.77261C0.303928 7.20514 0.609953 7.64187 0.912833 8.0671C8.89649 19.2953 16.2629 28.2224 22.4773 34.798C23.4852 34.1831 24.3646 33.7442 24.9997 33.4305C25.5657 33.1533 26.137 32.9146 26.7073 32.6801" transform="translate(115.536026 198.16412)" id="Shape#32" fill="#C71A8A" fill-rule="evenodd" stroke="none" />
      <path d="M14.7601 40.348C15.3459 43.1757 15.7565 45.8699 16.0321 48.4599C26.4014 57.8538 35.8159 70.9686 42.8732 84.6764C50.3023 99.1086 55.5798 115.301 57.557 130.009C57.5705 130.116 57.581 130.219 57.5946 130.327C66.2143 136.577 75.749 145.917 85.9646 158.129C86.5871 158.872 87.2096 159.646 87.8321 160.405C89.0948 161.946 90.3586 163.532 91.6223 165.136C91.6892 164.875 91.7634 164.618 91.8281 164.356C93.4888 157.591 94.3661 150.248 94.4026 142.396C94.5113 119.343 87.5584 93.027 74.8267 68.2963C62.4522 44.2586 45.8112 24.3754 27.9711 12.3091C18.8334 6.12955 9.41248 2.02405 0 0C0.647533 1.33204 1.28153 2.65675 1.89149 3.96894C8.3138 17.7851 12.5939 29.8816 14.7601 40.348" transform="translate(165.83383 194.41728)" id="Shape#33" fill="#C71A8A" fill-rule="evenodd" stroke="none" />
      <path d="M81.3907 119.975C81.374 119.871 81.3625 119.773 81.3468 119.669C60.4716 101.156 42.8404 69.6469 37.5556 42.2052C37.0761 39.7164 36.697 37.2598 36.4255 34.849C26.3686 26.9111 16.4265 15.8715 7.68248 4.74331C6.43855 3.15911 5.22803 1.57693 4.03528 0C3.25301 2.33987 2.57725 4.75481 2.01952 7.24472C1.04088 11.6191 0.407948 16.2154 0.144761 21.0161C-1.12424 44.1834 5.98317 71.5209 20.1604 97.9933C34.1078 124.035 52.7082 145.315 72.5349 157.914C81.3154 163.494 90.2037 167.213 98.9467 169.069C91.5029 153.91 85.3689 138.62 82.4581 125.55C82.034 123.644 81.6716 121.78 81.3907 119.975" transform="translate(89.38562 235.52188)" id="Shape#34" fill="#C71A8A" fill-rule="evenodd" stroke="none" />
      <path d="M81.8429 119.99C60.7516 101.539 42.8822 69.748 37.5557 42.0906C37.1233 39.8424 36.7797 37.6245 36.5143 35.44C26.7332 27.5552 17.0889 16.8169 8.5788 5.98568C7.00692 3.98558 5.48621 1.98758 3.99791 0C3.23236 2.30442 2.56809 4.67975 2.01973 7.12909C1.04007 11.5034 0.408171 16.0998 0.144952 20.9015C-1.12508 44.0689 5.98336 71.4063 20.1606 97.8787C34.1079 123.921 52.7073 145.2 72.5349 157.798C81.4512 163.464 90.4772 167.222 99.3508 169.046C99.5085 169.079 99.6651 169.106 99.8228 169.134C92.0898 153.55 85.6853 137.756 82.691 124.308C82.3641 122.837 82.0873 121.403 81.8429 119.99" transform="translate(223.57727 468.6817)" id="Shape#36" fill="#C71B8B" fill-rule="evenodd" stroke="none" />
      <path d="M15.8263 35.1294C19.628 33.0969 23.1185 30.6967 26.2926 27.9628C26.3281 27.9326 26.3605 27.9003 26.396 27.87C25.716 26.9258 25.0371 25.9846 24.3634 25.0685C16.8238 14.8147 9.71951 6.41516 3.59491 0C3.49259 0.100065 3.40171 0.20947 3.29936 0.307438C2.42622 1.1267 1.49666 1.88129 0.487746 2.54413C0.330056 2.64833 0.159818 2.73797 0 2.83912C3.19389 11.2637 7.80607 21.506 14.0205 33.1637C14.4142 33.9058 14.8393 34.6707 15.2466 35.4233C15.4315 35.3275 15.6174 35.2399 15.8023 35.1419C15.8096 35.1388 15.818 35.1346 15.8263 35.1294" transform="translate(345.91086 597.26794)" id="Shape#37" fill="#C71B8B" fill-rule="evenodd" stroke="none" />
      <path d="M27.1021 32.5779C24.1599 24.3774 19.6438 14.0559 12.9489 1.6405C12.6565 1.09957 12.3536 0.549247 12.0549 0C11.0868 0.42002 10.1216 0.855668 9.16391 1.32575C8.21974 1.78955 7.29958 2.28047 6.38988 2.78283C4.14956 4.02313 2.02621 5.38846 0 6.85494C0.619324 7.74187 1.23455 8.61736 1.84657 9.47932C9.35086 20.0332 16.31 28.5516 22.2789 34.9969C23.3891 34.3007 24.3542 33.8223 25.0383 33.4856C25.7234 33.1502 26.4118 32.8509 27.1021 32.5779" transform="translate(249.68811 431.1533)" id="Shape#38" fill="#C71B8B" fill-rule="evenodd" stroke="none" />
      <path d="M26.417 32.9784C26.9475 32.7178 27.4834 32.4958 28.0171 32.2739C25.124 24.9477 21.105 16.2093 15.653 6.10145C14.5836 4.11907 13.4586 2.08352 12.2815 0C11.6998 0.265761 11.1202 0.535715 10.5425 0.819202C9.59736 1.28306 8.67825 1.77399 7.76852 2.27635C5.01225 3.80007 2.42936 5.51364 0 7.38026C1.53532 9.64408 3.05497 11.8349 4.55166 13.9403C10.7285 22.6276 16.5356 29.9339 21.7264 35.8436C22.0293 35.6059 22.329 35.3819 22.6215 35.1754C24.1663 34.0864 25.525 33.4162 26.417 32.9784" transform="translate(381.40723 658.6118)" id="Shape#39" fill="#C71A8A" fill-rule="evenodd" stroke="none" />
      <path d="M37.0441 26.6088C27.4593 15.1523 18.4751 6.22228 10.2814 0C12.0612 16.0789 9.70909 30.1098 1.62514 37.7015C1.10815 38.1872 0.561906 38.6406 0 39.0752C6.19874 45.5321 13.42 54.0442 21.0955 64.4823C21.6617 65.2516 22.233 66.0447 22.8032 66.8347C23.4153 66.3501 24.0284 65.8654 24.6185 65.3558C33.5714 57.6441 39.9706 47.2372 43.5374 34.6874C41.9958 32.7133 40.4531 30.7675 38.9116 28.8851C38.2881 28.1254 37.6655 27.352 37.0441 26.6088" transform="translate(79.6678 91.533714)" id="Shape#40" fill="#C71A8A" fill-rule="evenodd" stroke="none" />
      <path d="M58.2087 43.3309C59.7148 41.9885 61.3055 40.7305 62.9588 39.535C58.7059 33.4962 54.2921 26.8382 49.7853 19.5101C45.571 12.6572 41.8538 6.15245 38.5429 0C27.686 5.09246 15.8337 6.4766 3.66598 4.21491C3.2555 4.13778 2.84506 4.07107 2.43459 3.98666C1.62409 3.81989 0.811529 3.61979 0 3.42071C0.522213 4.49734 1.0507 5.57401 1.58651 6.64964C8.73464 20.9911 16.9836 35.1231 24.7114 47.0414C29.0135 53.6754 34.5543 61.7987 40.8449 70.1201C44.4086 59.463 50.2731 50.4006 58.2087 43.3309" transform="translate(52.57614 165.40167)" id="Shape#41" fill="#B772A2" fill-rule="evenodd" stroke="none" />
      <path d="M1.81525 30.6686C1.22513 31.1772 0.61205 31.6629 0 32.1475C6.07969 40.57 12.4048 50.1453 18.7008 60.8504C20.9766 64.7193 23.0425 68.4046 24.9538 71.9421C34.8802 67.6168 45.3277 65.9867 55.8839 67.0154C58.3728 67.2583 60.868 67.6563 63.3621 68.1931C62.7688 66.9727 62.163 65.7459 61.5468 64.514C50.6919 42.8141 35.8316 19.3444 20.7342 0C17.1675 12.5488 10.7682 22.9568 1.81525 30.6686" transform="translate(102.47101 126.22198)" id="Shape#42" fill="#B772A2" fill-rule="evenodd" stroke="none" />
      <path d="M38.1788 43.8397C39.5283 45.0717 40.9664 46.4579 42.4653 47.9576C43.2079 48.7018 43.9713 49.4825 44.7473 50.2913C45.3102 49.8567 45.8555 49.4033 46.3725 48.9176C54.4565 41.3258 56.8085 27.295 55.0299 11.216C53.8778 10.3406 52.7404 9.51827 51.6208 8.75116C50.2777 7.8319 48.9669 7.00329 47.6833 6.24975C29.4954 -4.43441 17.2598 0.89255 11.3931 5.27213C5.09205 9.97688 -1.74799 19.4531 0.404613 38.05C1.39786 38.9714 2.39635 39.874 3.40528 40.7359C6.40805 43.303 9.47036 45.6116 12.5702 47.5814C23.68 54.6417 33.2804 56.2927 41.1315 52.5258C40.861 51.8004 40.5821 51.0636 40.3335 50.3653C39.5011 48.0317 38.7742 45.8388 38.1788 43.8397" transform="translate(34.920406 80.31754)" id="Shape#43" fill="#B772A2" fill-rule="evenodd" stroke="none" />
      <path d="M17.6246 51.5208C19.1381 52.0451 20.6451 52.4588 22.1419 52.7674C31.5094 54.6935 40.3997 52.4162 47.0455 46.2492C54.9122 38.9501 58.0695 28.268 56.5541 14.0172C54.2834 11.9598 51.9679 10.0733 49.62 8.40672C44.1409 4.51805 38.4925 1.77376 32.8588 0.614782C27.481 -0.491082 22.1199 -0.146095 16.9312 1.98431C16.9812 2.12917 17.0408 2.28759 17.091 2.43139C18.1845 5.62487 19.0346 8.47965 19.6561 10.9529C17.8649 9.34161 15.9013 7.43218 13.8041 5.25905C13.4417 4.8828 13.073 4.49506 12.7012 4.10213C12.2938 4.3502 11.8718 4.62015 11.428 4.93283C10.3888 5.66553 9.26604 6.59001 8.14116 7.76049C4.42611 11.6335 0.716261 18.2216 0.0906464 29.6365C-0.116155 33.4158 0.0352928 37.3961 0.500072 41.511C2.76232 43.2974 5.03085 44.9296 7.29206 46.3669C10.7679 48.5733 14.2271 50.3452 17.6246 51.5208" transform="translate(125.312126 228.85999)" id="Shape#44" fill="#B772A2" fill-rule="evenodd" stroke="none" />
      <path d="M20.9181 51.2477C33.0847 53.5094 44.9381 52.1263 55.795 47.0338C55.5653 46.6065 55.3209 46.1667 55.0953 45.7445C48.6449 33.6398 43.9312 23.0776 40.7269 14.4758C32.8759 18.2426 23.2754 16.5916 12.1667 9.53142C9.06575 7.56052 6.00344 5.25295 3.00067 2.68588C1.99174 1.82395 0.993266 0.921363 0 0C0.103401 0.890104 0.219333 1.79371 0.364507 2.72549C0.646501 4.53067 1.00893 6.3942 1.43297 8.30157C4.25504 20.9796 10.1102 35.7452 17.2511 50.4535C18.0636 50.6525 18.8762 50.8537 19.6856 51.0194C20.0971 51.1039 20.5076 51.1706 20.9181 51.2477" transform="translate(35.325054 118.36884)" id="Shape#45" fill="#B772A2" fill-rule="evenodd" stroke="none" />
      <path d="M32.3902 65.4353C31.9254 61.3205 31.774 57.339 31.9808 53.5609C32.6064 42.145 36.3162 35.5579 40.0312 31.6848C41.1561 30.5133 42.2789 29.5888 43.3181 28.8572C43.7621 28.5434 44.184 28.2745 44.5913 28.0254C38.3769 21.4498 31.0104 12.5228 23.0268 1.29449C22.7239 0.869265 22.4178 0.432536 22.1139 0C20.4606 1.19548 18.8699 2.45455 17.3638 3.7959C9.42815 10.8666 3.56258 19.928 0 30.5852C1.19275 32.1632 2.40325 33.7454 3.64719 35.3296C12.3913 46.4579 22.3332 57.4964 32.3902 65.4353" transform="translate(93.42189 204.93661)" id="Shape#46" fill="#B772A2" fill-rule="evenodd" stroke="none" />
      <path d="M0 5.22506C0.0407408 5.30009 0.0835624 5.37722 0.124287 5.4533C7.23381 18.6358 11.9004 29.4795 14.8175 37.9052C20.0063 35.7748 25.3674 35.4298 30.7452 36.5367C36.38 37.6947 42.0272 40.4389 47.5064 44.3286C49.8543 45.9953 52.1699 47.8807 54.4405 49.9381C54.1647 47.3491 53.7543 44.6549 53.1683 41.8272C51.0032 31.3608 46.722 19.2622 40.2998 5.44495C39.6898 4.13377 39.0569 2.80907 38.4083 1.47598C35.9131 0.939215 33.419 0.542131 30.9301 0.298226C20.3718 -0.730444 9.92428 0.899666 0 5.22506" transform="translate(127.42583 192.93907)" id="Shape#47" fill="#C71A8A" fill-rule="evenodd" stroke="none" />
      <path d="M37.1759 27.8021C26.9591 15.59 17.4254 6.25036 8.80463 0C11.0303 16.9481 8.8276 31.8689 0.395845 39.7879C0.268397 39.9078 0.130561 40.0151 0 40.1319C6.22904 46.6052 13.4974 55.1632 21.2272 65.6753C21.7609 66.4007 22.2999 67.1501 22.8367 67.8932C23.0185 67.741 23.2096 67.5983 23.3892 67.4429C32.8049 59.3322 39.39 48.2364 42.8335 34.8081C41.5697 33.204 40.306 31.6188 39.0433 30.0783C38.4208 29.3185 37.7973 28.5452 37.1759 27.8021" transform="translate(214.62318 324.74316)" id="Shape#48" fill="#C71A8A" fill-rule="evenodd" stroke="none" />
      <path d="M0 5.17041C0.299751 5.71864 0.602647 6.27107 0.894011 6.81091C7.58885 19.2243 12.105 29.5469 15.0472 37.7483C20.1252 35.7482 25.3641 35.4553 30.6196 36.5362C36.2534 37.6951 41.9006 40.4393 47.3797 44.3291C50.0169 46.201 52.6112 48.3501 55.1492 50.7098C54.8724 48.3001 54.4798 45.7997 53.9387 43.1847C51.7715 32.7194 47.4915 20.6219 41.0693 6.80468C40.2619 5.06615 39.4065 3.30367 38.5354 1.53185C35.9557 0.966915 33.377 0.550009 30.8035 0.297781C20.2912 -0.725679 9.88661 0.886736 0 5.17041" transform="translate(261.74286 425.98303)" id="Shape#49" fill="#C71B8B" fill-rule="evenodd" stroke="none" />
      <path d="M18.5193 52.8843C20.0338 53.4076 21.5399 53.8214 23.0366 54.1299C32.4041 56.057 41.2943 53.7787 47.94 47.6126C55.9154 40.2125 59.0549 29.3397 57.3881 14.7928C54.8501 12.4332 52.2557 10.284 49.6184 8.41208C44.1394 4.52339 38.4921 1.77913 32.8584 0.61799C27.6028 -0.461761 22.3639 -0.168872 17.2859 1.83122C17.5229 2.48994 17.7695 3.16327 17.9857 3.79377C19.0793 6.98728 19.9304 9.84203 20.5508 12.3154C18.7596 10.7051 16.7961 8.79461 14.6999 6.62253C13.9719 5.86693 13.2241 5.0748 12.4627 4.25242C12.1285 4.46195 11.7849 4.68604 11.4266 4.93826C10.3874 5.66998 9.26464 6.59439 8.14083 7.76594C4.42577 11.6389 0.714911 18.2261 0.0892645 29.642C-0.129037 33.6349 0.0589908 37.8582 0.588511 42.2231C3.11813 44.2628 5.65715 46.1201 8.18781 47.7284C11.6638 49.9358 15.1229 51.7076 18.5193 52.8843" transform="translate(259.50327 461.89987)" id="Shape#50" fill="#B772A2" fill-rule="evenodd" stroke="none" />
      <path d="M38.1818 43.8416C39.5312 45.0737 40.9694 46.4599 42.4682 47.9597C43.169 48.6611 43.8886 49.397 44.6186 50.1557C44.7493 50.0389 44.8871 49.9316 45.0145 49.8118C53.4463 41.8926 55.649 26.9716 53.4233 10.0223C52.8186 9.58459 52.2181 9.15936 51.6227 8.75078C50.2806 7.83253 48.9688 7.00399 47.6862 6.24934C29.4982 -4.43486 17.2626 0.893185 11.396 5.27277C4.82651 10.1776 -2.33206 20.2646 0.729205 40.471C1.16784 40.8598 1.60444 41.2528 2.04622 41.629C5.04901 44.1972 8.11132 46.5057 11.2122 48.4746C22.6948 55.7725 32.572 57.3088 40.5663 53.0386C40.7803 52.924 40.9778 52.7875 41.1855 52.6635C40.8963 51.8901 40.6007 51.1074 40.3365 50.3653C39.504 48.0327 38.7771 45.8408 38.1818 43.8416" transform="translate(170.0041 314.71967)" id="Shape#51" fill="#B772A2" fill-rule="evenodd" stroke="none" />
      <path d="M0.552487 32.6342C0.372846 32.7884 0.181706 32.9311 0 33.0845C6.111 41.5393 12.4685 51.1592 18.7988 61.9215C20.7738 65.2808 22.586 68.4961 24.282 71.6011C34.1708 67.3173 44.5733 65.7038 55.0856 66.7284C57.6591 66.9797 60.2378 67.3976 62.8176 67.9624C62.4279 67.1715 62.0426 66.3814 61.6446 65.5861C50.5893 43.485 35.3803 19.5433 19.9957 0C16.5532 13.4274 9.96805 24.5223 0.552487 32.6342" transform="translate(237.45963 359.55344)" id="Shape#52" fill="#B772A2" fill-rule="evenodd" stroke="none" />
      <path d="M56.6432 41.7926C58.1377 40.4617 59.7159 39.2119 61.3547 38.0258C57.391 32.3434 53.2926 26.1222 49.1148 19.3298C44.9422 12.5437 41.2575 6.10035 37.9717 0C26.7209 5.67093 14.3496 7.29161 1.63557 4.92886C1.22407 4.85275 0.814626 4.78502 0.403152 4.70059C0.268397 4.67352 0.133674 4.63597 0 4.60675C0.304961 5.22798 0.607857 5.84806 0.91701 6.46929C8.06516 20.8108 16.3141 34.9428 24.042 46.8599C28.1289 53.1647 33.3375 60.8138 39.2417 68.6974C42.8012 57.9914 48.6793 48.8883 56.6432 41.7926" transform="translate(188.33333 399.98434)" id="Shape#53" fill="#B772A2" fill-rule="evenodd" stroke="none" />
      <path d="M19.2355 49.7205C31.9505 52.0844 44.3209 50.4637 55.5716 44.7917C55.3094 44.305 55.0306 43.8047 54.7737 43.3231C48.3577 31.2852 43.6597 20.7678 40.4575 12.1923C40.2496 12.3163 40.0523 12.4527 39.8382 12.5685C31.844 16.8376 21.9667 15.3013 10.4841 8.00344C7.38316 6.03358 4.32085 3.72605 1.31807 1.15796C0.876286 0.781716 0.438635 0.388825 0 0C0.015661 0.104195 0.0271606 0.201147 0.0438699 0.305405C0.324815 2.10956 0.687274 3.97414 1.11126 5.88142C4.02215 18.9522 10.1561 34.2421 17.5999 49.3995C17.7346 49.4276 17.8694 49.4652 18.0041 49.4934C18.4145 49.5777 18.8251 49.6445 19.2355 49.7205" transform="translate(170.73238 355.19162)" id="Shape#54" fill="#B772A2" fill-rule="evenodd" stroke="none" />
      <path d="M32.5163 66.1115C31.9879 61.7475 31.7987 57.5244 32.0182 53.5314C32.6438 42.1156 36.3536 35.5285 40.0697 31.6555C41.1935 30.4839 42.3163 29.5595 43.3555 28.8278C43.7127 28.5756 44.0574 28.3525 44.3915 28.142C38.4216 21.6957 31.4635 13.1783 23.9594 2.62444C23.3473 1.7635 22.731 0.886991 22.1127 0C20.474 1.18712 18.8948 2.43575 17.4013 3.76671C9.43752 10.8635 3.55946 19.9655 0 30.6716C1.4883 32.6591 3.00901 34.6571 4.57984 36.6573C13.0909 47.4885 22.7352 58.2267 32.5163 66.1115" transform="translate(227.57515 438.01025)" id="Shape#55" fill="#B772A2" fill-rule="evenodd" stroke="none" />
      <path d="M36.7173 28.113C26.3271 15.6944 16.6463 6.25049 7.91058 0C7.9649 0.373069 8.0265 0.749377 8.07561 1.12048C10.3431 17.9925 8.23019 32.8771 0 40.9182C6.12459 47.3323 13.2289 55.7329 20.7687 65.9867C21.4424 66.9028 22.1213 67.843 22.8012 68.7883C32.3442 60.5273 38.9743 49.1979 42.3468 35.4661C42.3708 35.3691 42.3907 35.2701 42.4147 35.1722C41.1373 33.5494 39.861 31.9475 38.5847 30.3904C37.9612 29.6294 37.3377 28.8561 36.7173 28.113" transform="translate(349.5061 556.3506)" id="Shape#56" fill="#C71B8B" fill-rule="evenodd" stroke="none" />
      <path d="M0 5.6778C1.17708 7.76131 2.30195 9.79686 3.37147 11.7792C8.82344 21.8882 12.8424 30.6264 15.7356 37.9525C20.9589 35.7826 26.3555 35.422 31.7709 36.5373C37.4056 37.6951 43.053 40.4394 48.5321 44.3293C51.4211 46.3803 54.2587 48.7671 57.0266 51.3977C56.8448 50.3336 56.6442 49.2538 56.4166 48.1542C54.2504 37.6888 49.9692 25.5903 43.548 11.7731C42.3793 9.25905 41.129 6.69929 39.8402 4.12485C39.364 3.17324 38.8679 2.21224 38.377 1.25441C36.2349 0.829176 34.0926 0.507124 31.9567 0.299687C21.035 -0.766468 10.2303 1.00847 0 5.6778" transform="translate(393.68906 652.9337)" id="Shape#57" fill="#C71A8A" fill-rule="evenodd" stroke="none" />
      <path d="M54.6733 36.0331C55.7418 35.0815 56.8625 34.1789 58.0062 33.2993C54.8916 28.7101 51.706 23.799 48.4725 18.5398C44.4775 12.0454 40.9368 5.86794 37.7565 0C26.3303 5.94609 13.7229 7.67312 0.759289 5.26552C0.505472 5.21755 0.252768 5.17067 0 5.12378C0.0919329 5.3093 0.180689 5.49373 0.273639 5.67931C7.42071 20.0208 15.6698 34.1528 23.3976 46.07C27.0103 51.6409 31.5003 58.2646 36.568 65.1705C40.0293 53.4909 46.1611 43.6177 54.6733 36.0331" transform="translate(323.39996 632.6931)" id="Shape#58" fill="#3AFA97" fill-rule="evenodd" stroke="none" />
      <path d="M0 33.6161C5.98047 41.9292 12.1917 51.3565 18.3759 61.8698C19.4213 63.6479 20.4187 65.3832 21.3817 67.0884C31.612 62.4201 42.4167 60.644 53.3374 61.7092C55.4743 61.9166 57.6164 62.2387 59.7575 62.664C48.8535 41.3924 34.3203 18.6919 19.6124 0C19.5884 0.0979687 19.5686 0.198034 19.5445 0.293906C16.1732 14.0257 9.54409 25.3562 0 33.6161" transform="translate(372.30627 591.5217)" id="Shape#59" fill="#3AFA97" fill-rule="evenodd" stroke="none" />
      <path d="M38.1857 43.8418C39.5351 45.0737 40.9733 46.4599 42.4721 47.9587C43.3202 48.8071 44.1902 49.6992 45.0811 50.631C53.3112 42.59 55.4241 27.7055 53.1567 10.8333C53.1075 10.4622 53.047 10.086 52.9927 9.71287C52.5352 9.38669 52.0788 9.06146 51.6276 8.75193C50.2844 7.83158 48.9737 7.00304 47.6901 6.24941C29.5022 -4.43476 17.2666 0.893281 11.4 5.27182C4.797 10.2017 -2.40442 20.3627 0.775902 40.7754C0.840675 41.1881 0.923173 41.6145 0.996268 42.0335C1.26991 42.2722 1.54253 42.5201 1.81823 42.7557C4.82101 45.3228 7.88225 47.6314 10.9842 49.6013C22.4669 56.8981 32.3441 58.4344 40.3372 54.1643C40.7362 53.9506 41.1101 53.7078 41.4871 53.4691C41.085 52.408 40.6975 51.3659 40.3404 50.3642C39.508 48.0337 38.781 45.8408 38.1857 43.8418" transform="translate(304.42383 546.6366)" id="Shape#60" fill="#3AFA97" fill-rule="evenodd" stroke="none" />
      <path d="M32.8598 0.614623C27.4433 -0.4995 22.0467 -0.139964 16.8246 2.03002C17.7697 4.42307 18.598 6.66809 19.3135 8.75574C20.4069 11.9492 21.2572 14.8051 21.8786 17.2783C20.0874 15.668 18.1239 13.7576 16.0266 11.5855C14.2897 9.78447 12.4515 7.78545 10.5339 5.59984C9.75683 6.20747 8.95053 6.91829 8.14213 7.75833C4.42704 11.6335 0.716181 18.2196 0.0905352 29.6354C-0.200861 34.9593 0.220016 40.6854 1.22689 46.6233C3.98523 48.885 6.75405 50.9382 9.51452 52.6914C12.9894 54.8989 16.4496 56.6697 19.8472 57.8453C21.3606 58.3695 22.8677 58.7835 24.3644 59.0918C33.733 61.0191 42.6212 58.7406 49.267 52.5736C58.009 44.4647 60.9552 32.1942 58.1155 15.4731C55.3488 12.8425 52.5099 10.4556 49.621 8.40452C44.1408 4.51691 38.4936 1.77265 32.8598 0.614623" transform="translate(392.5996 688.85547)" id="Shape#61" fill="#3AFA97" fill-rule="evenodd" stroke="none" />
      <path d="M55.7376 44.0199C55.3303 43.2674 54.9063 42.5023 54.5114 41.7603C48.297 30.1026 43.6847 19.8603 40.4908 11.4357C40.1148 11.6743 39.7409 11.9172 39.3419 12.1308C31.3478 16.4009 21.4706 14.8647 9.98797 7.56786C6.88703 5.59692 3.82472 3.28938 0.821965 0.722249C0.547278 0.485714 0.274687 0.238695 0 0C0.24543 1.41121 0.521165 2.84643 0.849125 4.31914C3.84247 17.7653 10.247 33.5608 17.9811 49.1448C18.2338 49.1916 18.4866 49.2385 18.7403 49.2854C31.703 51.6941 44.3115 49.9671 55.7376 44.0199" transform="translate(305.42 588.67224)" id="Shape#62" fill="#3AFA97" fill-rule="evenodd" stroke="none" />
      <path d="M33.8586 69.4866C32.8518 63.5488 32.4309 57.8237 32.7223 52.4988C33.3479 41.0829 37.0577 34.4969 40.7738 30.6227C41.5822 29.7805 42.3885 29.0708 43.1647 28.4631C37.9737 22.5535 32.1677 15.2473 25.9898 6.56002C24.4931 4.45465 22.9735 2.26376 21.4382 0C20.2945 0.879684 19.1739 1.7823 18.1054 2.73384C9.59317 10.3183 3.46127 20.1917 0 31.8712C2.11185 34.7489 4.31354 37.6705 6.61028 40.5939C14.9229 51.1698 24.3135 61.6571 33.8586 69.4866" transform="translate(359.968 665.993)" id="Shape#63" fill="#3AFA97" fill-rule="evenodd" stroke="none" />
      <path d="M28.1957 60.3123C36.2974 65.46 44.4901 69.0151 52.576 70.9943C45.4352 56.286 39.5801 41.5204 36.758 28.8424C36.334 26.9351 35.9716 25.0704 35.6896 23.2663C35.5444 22.3345 35.4285 21.4299 35.3251 20.5398C29.0261 14.6947 23.0498 7.68768 17.6542 0C11.281 11.5784 5.38722 23.458 0 35.6107C8.81613 45.6623 18.3539 54.0587 28.1957 60.3123" transform="translate(0 97.82785)" id="Shape#71" fill="#C71A8A" fill-rule="evenodd" stroke="none" />
      <path d="M9.75298 43.7979C17.182 58.2301 22.4606 74.4216 24.4378 89.131C24.5454 89.9387 24.6342 90.7361 24.7229 91.5345C32.9155 97.7568 41.8998 106.686 51.4846 118.144C52.1061 118.886 52.7285 119.66 53.3521 120.419C54.8937 122.301 56.4363 124.248 57.9779 126.222C58.2349 125.317 58.4803 124.403 58.708 123.475C60.3697 116.71 61.247 109.368 61.2835 101.516C61.3912 78.4625 54.4383 52.1463 41.7065 27.4157C36.5898 17.4746 30.7336 8.25991 24.3751 0C15.8953 8.83733 7.76436 18.0102 0 27.4949C3.5793 32.6906 6.86614 38.1916 9.75298 43.7979" transform="translate(65.22747 0)" id="Shape#72" fill="#C71A8A" fill-rule="evenodd" stroke="none" />
      <path d="M37.5552 39.8581C37.4111 39.1067 37.2784 38.3594 37.152 37.6153C27.6079 29.7858 18.2153 19.2996 9.90366 8.7227C7.60693 5.79915 5.40524 2.87775 3.29338 0C2.8192 1.59882 2.39204 3.23208 2.02021 4.89754C1.04055 9.27087 0.407599 13.8662 0.144412 18.669C-0.949095 38.6345 4.19267 61.6967 14.7049 84.6327C28.6023 86.2337 42.6855 87.2206 56.9286 87.5688C47.586 72.4477 40.5664 55.4921 37.5552 39.8581" transform="translate(356.67468 697.8646)" id="Shape#73" fill="#C71A8A" fill-rule="evenodd" stroke="none" />
      <path d="M29.0291 12.5321C19.5499 6.1212 9.76445 1.93758 0 0C0.491939 0.957831 0.986992 1.91884 1.46324 2.86936C2.75106 5.44577 4.00229 8.00459 5.17099 10.5185C11.5922 24.3357 15.8734 36.4343 18.0396 46.8997C18.2672 48.0003 18.4677 49.0801 18.6484 50.1432C28.3993 59.4142 37.2289 71.8859 43.9301 84.9016C50.8004 98.2478 55.8252 113.096 58.1052 126.886C70.0829 125.212 81.9122 123.076 93.5797 120.508C90.7273 103.489 84.6894 85.6249 75.8848 68.5193C63.5092 44.4806 46.8692 24.5974 29.0291 12.5321" transform="translate(432.06488 654.18726)" id="Shape#74" fill="#C71A8A" fill-rule="evenodd" stroke="none" />
      <path d="M15.4034 41.6519C15.9445 44.2669 16.3382 46.7662 16.6139 49.177C26.6531 58.5115 35.7522 71.2844 42.6205 84.6243C49.8625 98.6906 55.0514 114.428 57.1392 128.836C65.8739 135.087 75.5558 144.53 85.9458 156.949C86.5673 157.692 87.1898 158.465 87.8122 159.226C89.0885 160.783 90.3659 162.385 91.6422 164.008C93.2579 157.323 94.1144 150.082 94.1499 142.342C94.2585 119.289 87.3056 92.9729 74.574 68.2421C62.1995 44.2044 45.5584 24.3202 27.7184 12.2549C18.6631 6.1306 9.32894 2.04387 0 0C0.871076 1.77074 1.72646 3.5343 2.53486 5.27283C8.95714 19.0879 13.2373 31.1866 15.4034 41.6519" transform="translate(300.27728 427.51596)" id="Shape#35" fill="#C71B8B" fill-rule="evenodd" stroke="none" />
    </g>
  </g>
  <g id="Text" transform="translate(290 402)">
    <g id="Fill">
      <path d="M0 0L50.6974 0L75.4946 123.159C77.975 135.283 77.975 143.824 77.975 143.824L78.5264 143.824C78.5264 143.824 78.8021 135.283 81.8329 123.159L112.141 0L150.99 0L180.472 123.159C183.502 135.283 183.778 143.824 183.778 143.824L184.33 143.824C184.33 143.824 184.33 135.283 186.809 123.159L213.811 0L263.681 0L213.811 197L160.083 197L135.285 97.5364C132.255 84.8618 131.428 74.3927 131.428 74.3927L130.877 74.3927C130.877 74.3927 130.05 84.8627 127.019 97.5364L102.222 197L47.9431 197L0 0L0 0L0 0L0 0Z" id="Shape#76" fill="#1BBFC8" fill-rule="evenodd" stroke="none" />
      <path d="M0 0L48.217 0L48.217 155.671L128.671 155.671L128.671 196.999L0 196.999L0 0L0 0L0 0L0 0Z" transform="translate(292.3285 0)" id="Shape#77" fill="#1BBFC8" fill-rule="evenodd" stroke="none" />
    </g>
    <g id="Border" transform="translate(0 0.00079345703)">
      <path d="M47.9413 196.998L102.22 196.998L127.017 97.5347C130.047 84.861 130.874 74.391 130.874 74.391L131.426 74.391C131.426 74.391 132.252 84.861 135.283 97.5347L160.08 196.998L213.807 196.998L263.678 3.05176e-05L213.807 3.05176e-05L186.805 123.158C184.327 135.281 184.327 143.822 184.327 143.822L183.776 143.822C183.776 143.822 183.5 135.281 180.469 123.158L150.988 0L112.139 0L81.8312 123.158C78.8003 135.281 78.5246 143.822 78.5246 143.822L77.9732 143.822C77.9732 143.822 77.9732 135.281 75.4938 123.158L50.6965 0L0 0L47.9413 196.998L47.9413 196.998L47.9413 196.998L47.9413 196.998Z" id="Shape#78" fill="none" fill-rule="evenodd" stroke="#FFFFFF" stroke-width="8.504" />
      <path d="M0 196.997L128.671 196.997L128.671 155.671L48.217 155.671L48.217 0L0 0L0 196.997L0 196.997L0 196.997Z" transform="translate(292.3285 0.00091552734)" id="Polygon" fill="none" fill-rule="evenodd" stroke="#FFFFFF" stroke-width="8.504" />
    </g>
  </g>
  <path d="M0 460C0 205.949 205.949 0 460 0C714.051 0 920 205.949 920 460C920 714.051 714.051 920 460 920C205.949 920 0 714.051 0 460L0 460L0 460L0 460L0 460L0 460L0 460L0 460L0 460L0 460L0 460L0 460L0 460L0 460L0 460L0 460L0 460L0 460L0 460L0 460L0 460L0 460L0 460L0 460Z" transform="translate(40 40)" id="elipse" fill="none" fill-rule="evenodd" stroke="#FFFFFF" stroke-width="15" />
</svg>